<svg xmlns="http://www.w3.org/2000/svg" width="68" height="33" viewBox="0 0 68 33">
  <g id="Logo_2" data-name="Logo 2" transform="translate(-100 -8)">
    <g id="delivery-truck" transform="translate(112.324 8)">
      <g id="Grupo_30" data-name="Grupo 30" transform="translate(0 2.72)">
        <path id="Caminho_16" data-name="Caminho 16" d="M10.879,145.36A1.36,1.36,0,0,0,9.519,144H1.36a1.36,1.36,0,1,0,0,2.72H9.519A1.36,1.36,0,0,0,10.879,145.36Z" transform="translate(0 -144)" fill="#2ecc71"/>
        <path id="Caminho_17" data-name="Caminho 17" d="M38.8,208H33.36a1.36,1.36,0,1,0,0,2.72H38.8a1.36,1.36,0,1,0,0-2.72Z" transform="translate(-29.28 -202.561)" fill="#2ecc71"/>
        <path id="Caminho_18" data-name="Caminho 18" d="M68.08,272H65.36a1.36,1.36,0,0,0,0,2.72h2.72a1.36,1.36,0,1,0,0-2.72Z" transform="translate(-58.561 -261.121)" fill="#2ecc71"/>
      </g>
      <path id="Caminho_19" data-name="Caminho 19" d="M336.125,183.46l-4.08-6.8a1.357,1.357,0,0,0-1.167-.661H321.36a1.36,1.36,0,0,0-1.36,1.36v13.6a1.36,1.36,0,0,0,1.36,1.36h13.6a1.36,1.36,0,0,0,1.36-1.36v-6.8A1.34,1.34,0,0,0,336.125,183.46Z" transform="translate(-292.803 -170.561)" fill="#288ee7"/>
      <path id="Caminho_20" data-name="Caminho 20" d="M384,208h4.67l3.264,5.439H384Z" transform="translate(-351.364 -199.841)" fill="#fafafa"/>
      <path id="Caminho_21" data-name="Caminho 21" d="M116.4,112H97.36A1.36,1.36,0,0,0,96,113.36V132.4a1.36,1.36,0,0,0,1.36,1.36h20.4v-20.4A1.36,1.36,0,0,0,116.4,112Z" transform="translate(-87.841 -112)" fill="#2ecc71"/>
      <circle id="Elipse_1" data-name="Elipse 1" cx="2.5" cy="2.5" r="2.5" transform="translate(33.676 18)" fill="#fafafa"/>
      <path id="Caminho_22" data-name="Caminho 22" d="M388.08,312.159a4.08,4.08,0,1,1,4.08-4.08A4.085,4.085,0,0,1,388.08,312.159Zm0-5.439a1.36,1.36,0,1,0,1.36,1.36A1.364,1.364,0,0,0,388.08,306.72Z" transform="translate(-351.364 -287.682)" fill="#455a64"/>
      <path id="Caminho_23" data-name="Caminho 23" d="M117.757,309.439H97.36A1.36,1.36,0,0,1,96,308.08V304h21.757Z" transform="translate(-87.841 -287.682)" fill="#288ee7"/>
      <ellipse id="Elipse_2" data-name="Elipse 2" cx="3" cy="2.5" rx="3" ry="2.5" transform="translate(14.676 18)" fill="#fafafa"/>
      <path id="Caminho_24" data-name="Caminho 24" d="M164.08,312.159a4.08,4.08,0,1,1,4.08-4.08A4.085,4.085,0,0,1,164.08,312.159Zm0-5.439a1.36,1.36,0,1,0,1.36,1.36A1.362,1.362,0,0,0,164.08,306.72Z" transform="translate(-146.402 -287.682)" fill="#455a64"/>
    </g>
    <text id="Já_Fui_Transportes" data-name="Já Fui Transportes" transform="translate(100 39)" fill="#fff" font-size="8" font-family="SegoeUI-Bold, Segoe UI" font-weight="700"><tspan x="0" y="0">Já Fui Transportes</tspan></text>
  </g>
</svg>
