<svg xmlns="http://www.w3.org/2000/svg" width="178" height="85" viewBox="0 0 178 85">
  <g id="Logo" transform="translate(-100 -8)">
    <g id="delivery-truck" transform="translate(131.613 8)">
      <g id="Grupo_30" data-name="Grupo 30" transform="translate(0 6.977)">
        <path id="Caminho_16" data-name="Caminho 16" d="M27.906,147.488A3.49,3.49,0,0,0,24.418,144H3.488a3.488,3.488,0,1,0,0,6.977h20.93A3.49,3.49,0,0,0,27.906,147.488Z" transform="translate(0 -144)" fill="#2ecc71"/>
        <path id="Caminho_17" data-name="Caminho 17" d="M49.441,208H35.488a3.488,3.488,0,1,0,0,6.977H49.441a3.488,3.488,0,1,0,0-6.977Z" transform="translate(-25.023 -194.047)" fill="#2ecc71"/>
        <path id="Caminho_18" data-name="Caminho 18" d="M74.465,272H67.488a3.488,3.488,0,0,0,0,6.977h6.977a3.488,3.488,0,1,0,0-6.977Z" transform="translate(-50.047 -244.094)" fill="#2ecc71"/>
      </g>
      <path id="Caminho_19" data-name="Caminho 19" d="M361.364,195.137,350.9,177.7a3.48,3.48,0,0,0-2.993-1.7H323.488A3.49,3.49,0,0,0,320,179.488v34.883a3.49,3.49,0,0,0,3.488,3.488h34.883a3.49,3.49,0,0,0,3.488-3.488V196.93A3.436,3.436,0,0,0,361.364,195.137Z" transform="translate(-250.234 -162.047)" fill="#288ee7"/>
      <path id="Caminho_20" data-name="Caminho 20" d="M384,208h11.979l8.372,13.953H384Z" transform="translate(-300.281 -187.07)" fill="#fafafa"/>
      <path id="Caminho_21" data-name="Caminho 21" d="M148.324,112H99.488A3.49,3.49,0,0,0,96,115.488v48.836a3.49,3.49,0,0,0,3.488,3.488h52.324V115.488A3.49,3.49,0,0,0,148.324,112Z" transform="translate(-75.07 -112)" fill="#2ecc71"/>
      <ellipse id="Elipse_1" data-name="Elipse 1" cx="6.5" cy="7" rx="6.5" ry="7" transform="translate(87.387 45)" fill="#fafafa"/>
      <path id="Caminho_22" data-name="Caminho 22" d="M394.465,324.93a10.465,10.465,0,1,1,10.465-10.465A10.478,10.478,0,0,1,394.465,324.93Zm0-13.953a3.488,3.488,0,1,0,3.488,3.488A3.5,3.5,0,0,0,394.465,310.977Z" transform="translate(-300.281 -262.141)" fill="#455a64"/>
      <path id="Caminho_23" data-name="Caminho 23" d="M151.813,317.953H99.488A3.49,3.49,0,0,1,96,314.465V304h55.813Z" transform="translate(-75.07 -262.141)" fill="#288ee7"/>
      <circle id="Elipse_2" data-name="Elipse 2" cx="7" cy="7" r="7" transform="translate(38.387 45)" fill="#fafafa"/>
      <path id="Caminho_24" data-name="Caminho 24" d="M170.465,324.93a10.465,10.465,0,1,1,10.465-10.465A10.478,10.478,0,0,1,170.465,324.93Zm0-13.953a3.488,3.488,0,1,0,3.488,3.488A3.494,3.494,0,0,0,170.465,310.977Z" transform="translate(-125.117 -262.141)" fill="#455a64"/>
    </g>
    <text id="Já_Fui_Transportes" data-name="Já Fui Transportes" transform="translate(100 88)" fill="#00244a" font-size="21" font-family="SegoeUI-Bold, Segoe UI" font-weight="700"><tspan x="0" y="0">Já Fui Transportes</tspan></text>
  </g>
</svg>
