<svg xmlns="http://www.w3.org/2000/svg" width="54.77" height="58.429" viewBox="0 0 54.77 58.429">
  <g id="package" transform="translate(-47)">
    <g id="Grupo_25" data-name="Grupo 25" transform="translate(47 0)">
      <g id="Grupo_24" data-name="Grupo 24" transform="translate(0 0)">
        <path id="Caminho_13" data-name="Caminho 13" d="M70.318,12.892,43.789.085a.856.856,0,0,0-.744,0L16.516,12.892a.856.856,0,0,0-.484.771v31.1a.856.856,0,0,0,.484.771L43.045,58.343a.856.856,0,0,0,.744,0L70.318,45.536a.856.856,0,0,0,.484-.771v-31.1A.856.856,0,0,0,70.318,12.892ZM43.417,1.806l24.56,11.857L60.858,17.1a.849.849,0,0,0-.145-.091L36.319,5.232ZM34.386,6.2,58.911,18.039l-5.023,2.425L29.374,8.63Zm25.1,13.463v8.964l-4.692,2.265V21.928ZM69.09,44.228,44.273,56.209v-29.2l5.92-2.858a.856.856,0,1,0-.744-1.542l-6.031,2.912-2.373-1.146a.856.856,0,0,0-.744,1.542l2.262,1.092v29.2L17.744,44.228v-29.2l18.9,9.123a.856.856,0,0,0,.744-1.542L18.857,13.662l8.5-4.1L53.069,21.97l.012.015V32.255a.856.856,0,0,0,1.228.771l6.4-3.091a.856.856,0,0,0,.484-.771V18.837l7.893-3.811Z" transform="translate(-16.032 0.001)" fill="#288ee7"/>
      </g>
    </g>
    <g id="Grupo_27" data-name="Grupo 27" transform="translate(50.654 38.944)">
      <g id="Grupo_26" data-name="Grupo 26" transform="translate(0)">
        <path id="Caminho_14" data-name="Caminho 14" d="M53.17,343.226l-3.893-1.879a.856.856,0,1,0-.744,1.542l3.893,1.879a.856.856,0,0,0,.744-1.542Z" transform="translate(-48.048 -341.261)" fill="#288ee7"/>
      </g>
    </g>
    <g id="Grupo_29" data-name="Grupo 29" transform="translate(50.659 34.885)">
      <g id="Grupo_28" data-name="Grupo 28">
        <path id="Caminho_15" data-name="Caminho 15" d="M56.795,309.382l-7.471-3.607a.856.856,0,0,0-.744,1.542l7.471,3.607a.856.856,0,0,0,.744-1.542Z" transform="translate(-48.096 -305.69)" fill="#288ee7"/>
      </g>
    </g>
  </g>
</svg>
