<svg id="piggy-bank" xmlns="http://www.w3.org/2000/svg" width="57.16" height="56.018" viewBox="0 0 57.16 56.018">
  <g id="Grupo_18" data-name="Grupo 18" transform="translate(42.56 29.64)">
    <g id="Grupo_17" data-name="Grupo 17">
      <path id="Caminho_9" data-name="Caminho 9" d="M385.836,270.613a.832.832,0,0,0-.832.832,1.056,1.056,0,1,1-2.112,0,.832.832,0,1,0-1.664,0,2.72,2.72,0,1,0,5.44,0A.832.832,0,0,0,385.836,270.613Z" transform="translate(-381.228 -270.613)" fill="#288ee7"/>
    </g>
  </g>
  <g id="Grupo_20" data-name="Grupo 20" transform="translate(0 0)">
    <g id="Grupo_19" data-name="Grupo 19" transform="translate(0 0)">
      <path id="Caminho_10" data-name="Caminho 10" d="M54.977,34.891l-2.341-.75A.98.98,0,0,1,52,33.5a15.1,15.1,0,0,0-2.213-4.378,16.065,16.065,0,0,0-1.479-1.744,20.633,20.633,0,0,0,.509-4.712c-.035-2.119-.458-3.363-1.295-3.8-.45-.236-1.821-.954-9.242,2.443a2.7,2.7,0,0,0-.492.293c-.5-.134-1.012-.259-1.526-.37l-.188-.039A11.332,11.332,0,0,0,37.1,16.98a.832.832,0,0,0-1.662-.074A9.679,9.679,0,0,1,29.1,25.56a24.124,24.124,0,0,0-6.7,0A9.686,9.686,0,1,1,34.412,12.112a.832.832,0,0,0,1.486-.748,11.355,11.355,0,1,0-16.17,14.73h0q-.776.2-1.538.455a.832.832,0,0,0,.528,1.578,22.324,22.324,0,0,1,14.07,0,.832.832,0,0,0,.528-1.578q-.761-.255-1.538-.455h0a11.343,11.343,0,0,0,3.453-3.376c.229.045.457.091.681.14q.448.1.891.208c-.009.036-.019.072-.026.109a9.921,9.921,0,0,0,.078,5.061,6.022,6.022,0,0,0,2.206,3.1,7,7,0,0,0,4.095,1.3,5.489,5.489,0,0,0,2.653-.614,5.066,5.066,0,0,0,1.956-2.777q.36.42.681.86a13.432,13.432,0,0,1,1.97,3.9,2.646,2.646,0,0,0,1.712,1.726l2.341.75A1.473,1.473,0,0,1,55.5,37.883v3.882a1.473,1.473,0,0,1-1.027,1.407L50.7,44.381a2.57,2.57,0,0,0-1.438,1.168,16.58,16.58,0,0,1-6.926,6.3,1.3,1.3,0,0,0-.684.919l-1.208,6.4a.374.374,0,0,1-.367.3H36.146a.374.374,0,0,1-.367-.3l-.669-3.536a1.307,1.307,0,0,0-1.486-1.051,34.774,34.774,0,0,1-5.182.385,33.166,33.166,0,0,1-3.813-.215,1.318,1.318,0,0,0-1.441,1.057l-.636,3.359a.374.374,0,0,1-.367.3H18.255a.375.375,0,0,1-.368-.307L16.724,53.12a1.306,1.306,0,0,0-.671-.908A14.692,14.692,0,0,1,7.94,38.522a15.992,15.992,0,0,1,2.011-8.13,14.514,14.514,0,0,1,5.407-5.278.832.832,0,0,0-.833-1.44A15.834,15.834,0,0,0,6.49,35.5h0l-.24-.022a4.142,4.142,0,0,0-.3-1.66A3.407,3.407,0,0,0,3.42,31.612a2.3,2.3,0,0,0-2.165.964,2.191,2.191,0,0,0-.416,2.39c.419.863,1.5,1.474,3.283,1.858q-.074.11-.162.222A4.082,4.082,0,0,1,.852,38.691.873.873,0,0,0,0,39.56v0a.871.871,0,0,0,.835.869q.09,0,.187,0a5.4,5.4,0,0,0,4.239-2.353,4.744,4.744,0,0,0,.607-.981q.235.027.452.046h0c-.028.451-.044.908-.044,1.374A17.143,17.143,0,0,0,8.731,47.7a16.818,16.818,0,0,0,6.392,5.9l1.131,5.874a2.039,2.039,0,0,0,2,1.659h3.928a2.039,2.039,0,0,0,2-1.659l.575-3.038a35.057,35.057,0,0,0,3.68.191,36.545,36.545,0,0,0,5.1-.355l.606,3.2a2.039,2.039,0,0,0,2,1.658h3.928a2.039,2.039,0,0,0,2-1.659l1.176-6.229A18.137,18.137,0,0,0,50.7,46.382a.909.909,0,0,1,.506-.417l3.772-1.208a3.132,3.132,0,0,0,2.183-2.992V37.883A3.132,3.132,0,0,0,54.977,34.891ZM47.032,25c-.32,2.738-1.179,5.08-2.042,5.569a5.09,5.09,0,0,1-4.946-.581c-1.7-1.245-2.269-3.485-1.639-6.476h0a1,1,0,0,1,.571-.695c4.165-1.906,6.566-2.53,7.458-2.53a.87.87,0,0,1,.3.04C47,20.618,47.355,22.241,47.032,25ZM2.336,34.24c-.086-.178.117-.49.246-.66a.664.664,0,0,1,.534-.325.624.624,0,0,1,.084.006,1.813,1.813,0,0,1,1.2,1.178,2.526,2.526,0,0,1,.174.784C3.424,34.985,2.53,34.641,2.336,34.24Z" transform="translate(0 -5.115)" fill="#288ee7"/>
    </g>
  </g>
  <g id="Grupo_22" data-name="Grupo 22" transform="translate(22.646 5.341)">
    <g id="Grupo_21" data-name="Grupo 21">
      <path id="Caminho_11" data-name="Caminho 11" d="M206.761,58.018V55.042c1.027.073,1.408.543,1.76.543.44,0,.645-.557.645-.836,0-.719-1.408-1.027-2.405-1.056v-.4c0-.176-.22-.337-.44-.337a.387.387,0,0,0-.425.337v.425c-1.393.147-2.786.88-2.786,2.728,0,1.877,1.467,2.405,2.786,2.874V62.77c-1.5-.117-1.892-1.144-2.376-1.144-.367,0-.675.484-.675.836,0,.719,1.232,1.7,3.05,1.73h0v.455a.387.387,0,0,0,.425.337c.22,0,.44-.161.44-.337v-.5a2.841,2.841,0,0,0,2.669-3.021C209.43,59.133,208.036,58.488,206.761,58.018Zm-.777-.279c-.777-.293-1.408-.6-1.408-1.437,0-.763.587-1.129,1.408-1.232Zm.689,5V59.646a1.715,1.715,0,0,1,1.29,1.642A1.4,1.4,0,0,1,206.673,62.74Z" transform="translate(-202.845 -52.959)" fill="#288ee7"/>
    </g>
  </g>
</svg>
