<svg xmlns="http://www.w3.org/2000/svg" width="85.34" height="45.255" viewBox="0 0 85.34 45.255">
  <g id="truck" transform="translate(0)">
    <g id="Grupo_8" data-name="Grupo 8" transform="translate(14.704 37.411)">
      <g id="Grupo_7" data-name="Grupo 7" transform="translate(0 0)">
        <path id="Caminho_4" data-name="Caminho 4" d="M89.475,344.692h-.013a1.257,1.257,0,1,0,.013,0Z" transform="translate(-88.218 -344.692)" fill="#288ee7"/>
      </g>
    </g>
    <g id="Grupo_10" data-name="Grupo 10" transform="translate(25.393 37.411)">
      <g id="Grupo_9" data-name="Grupo 9" transform="translate(0 0)">
        <path id="Caminho_5" data-name="Caminho 5" d="M153.6,344.692h-.013a1.257,1.257,0,1,0,.013,0Z" transform="translate(-152.347 -344.692)" fill="#288ee7"/>
      </g>
    </g>
    <g id="Grupo_12" data-name="Grupo 12" transform="translate(69.485 37.411)">
      <g id="Grupo_11" data-name="Grupo 11" transform="translate(0 0)">
        <path id="Caminho_6" data-name="Caminho 6" d="M418.136,344.692h-.013a1.257,1.257,0,1,0,.013,0Z" transform="translate(-416.879 -344.692)" fill="#288ee7"/>
      </g>
    </g>
    <g id="Grupo_14" data-name="Grupo 14" transform="translate(0 0)">
      <g id="Grupo_13" data-name="Grupo 13">
        <path id="Caminho_7" data-name="Caminho 7" d="M84.191,142.542l-1.681-1.681L79.124,130.7a1.25,1.25,0,0,0-.379-2.441H66.634v-5.43a2.589,2.589,0,0,0-2.586-2.586H2.586A2.589,2.589,0,0,0,0,122.831v29.395a2.589,2.589,0,0,0,2.586,2.586H4.008v2.758a2.589,2.589,0,0,0,2.586,2.586H9.473a6.59,6.59,0,0,0,11.819,2.606,6.59,6.59,0,0,0,11.819-2.606H64.254a6.594,6.594,0,0,0,13.069-1.25c0-.029,0-.057,0-.085h5.433a2.589,2.589,0,0,0,2.586-2.586V145.315A3.9,3.9,0,0,0,84.191,142.542ZM9.473,157.656H6.595a.086.086,0,0,1-.086-.086v-2.758h4.274A6.569,6.569,0,0,0,9.473,157.656ZM15.947,163a4.094,4.094,0,0,1-.026-8.188h.051A4.094,4.094,0,0,1,15.947,163Zm10.689,0a4.094,4.094,0,0,1-.026-8.188h.051A4.094,4.094,0,0,1,26.637,163Zm37.618-5.345H33.111a6.568,6.568,0,0,0-1.31-2.844h24.23a1.25,1.25,0,1,0,0-2.5H2.586a.086.086,0,0,1-.086-.086V122.831a.086.086,0,0,1,.086-.086H64.048a.086.086,0,0,1,.086.086v29.481H61.376a1.25,1.25,0,0,0,0,2.5h4.188A6.567,6.567,0,0,0,64.254,157.656Zm15.874-16.033H72.065a.086.086,0,0,1-.086-.086v-5.431H78.29ZM70.729,163a4.094,4.094,0,0,1-.025-8.188h.034A4.094,4.094,0,0,1,70.729,163Zm12.111-6.766a.086.086,0,0,1-.086.086H76.795a6.6,6.6,0,0,0-6.066-4.009H66.634V130.848h0a.086.086,0,0,1,.086-.086h9.788l.948,2.844H70.729a1.25,1.25,0,0,0-1.25,1.25v6.681a2.589,2.589,0,0,0,2.586,2.586H82.236l.187.187a1.413,1.413,0,0,1,.417,1.006V148.3H81.418a1.25,1.25,0,1,0,0,2.5H82.84Z" transform="translate(0 -120.245)" fill="#288ee7"/>
      </g>
    </g>
    <g id="Grupo_16" data-name="Grupo 16" transform="translate(5.344 26.722)">
      <g id="Grupo_15" data-name="Grupo 15" transform="translate(0 0)">
        <path id="Caminho_8" data-name="Caminho 8" d="M86.759,280.567H33.314a1.25,1.25,0,1,0,0,2.5H86.759a1.25,1.25,0,0,0,0-2.5Z" transform="translate(-32.064 -280.567)" fill="#288ee7"/>
      </g>
    </g>
  </g>
</svg>
