<svg id="worldwide" xmlns="http://www.w3.org/2000/svg" width="58.083" height="58.071" viewBox="0 0 58.083 58.071">
  <g id="Grupo_23" data-name="Grupo 23" transform="translate(0 0)">
    <path id="Caminho_12" data-name="Caminho 12" d="M29.052.05a29.035,29.035,0,0,0-26.7,17.607l-.362.12.14.421A29.033,29.033,0,1,0,29.052.05ZM51.827,43.725l-1.491-1.49V38.764a.967.967,0,0,0-.1-.433l-3.775-7.539V27.15a.968.968,0,0,0-.431-.805l-2.9-1.936a.968.968,0,0,0-.774-.134l-3.556.888L32.828,22.6l-.822-5.757,2.277-2.276h4.889l1.645,2.473a.968.968,0,0,0,.647.417l5.807.968a.96.96,0,0,0,.465-.037l5.348-1.783A27,27,0,0,1,51.827,43.725ZM47.835,9.587l-1.574,1.049-4.387-.878-2.846-.948a.95.95,0,0,0-.54-.021l-3.6.9-1.578-.526,1.169-2.338h3.273a.968.968,0,0,0,.433-.1l3.349-1.674A27.2,27.2,0,0,1,47.835,9.587ZM18.442,4.147,20.765,5.7a.967.967,0,0,0,.378.149l4.69.782L25.376,8l-2.444.816a.968.968,0,0,0-.524.419l-2.78,4.632-4.465,2.679-6.581.94a.968.968,0,0,0-.832.957v2.9a.968.968,0,0,0,.284.684l1.652,1.652v1.663L5.66,22.657,4.2,18.276A27.256,27.256,0,0,1,18.442,4.147ZM15.687,35.88,11.312,35,9.686,31.761V29.486l3.606-3.606,1.335,2.67a.968.968,0,0,0,.866.535H21.72l2.622,4.37a.968.968,0,0,0,.829.469h2.691l-.677,3.394-3.664,3.664a.968.968,0,0,0-.285.684v2.42L19.752,46.7a.968.968,0,0,0-.387.774v3.5l-1.2-.4-1.7-4.251V36.828A.968.968,0,0,0,15.687,35.88ZM12.778,50.758A27.093,27.093,0,0,1,3.125,21.172l.8,2.412a.967.967,0,0,0,.38.5L9.135,27.3l-1.1,1.1a.968.968,0,0,0-.284.684v2.9a.968.968,0,0,0,.1.433l1.936,3.871a.968.968,0,0,0,.677.516l4.065.812v8.886a.968.968,0,0,0,.069.359l1.936,4.839a.968.968,0,0,0,.593.558l2.9.968a.951.951,0,0,0,.3.05.968.968,0,0,0,.968-.968V47.959l3.484-2.613a.968.968,0,0,0,.387-.774v-2.5L28.76,38.48a.969.969,0,0,0,.264-.495l.968-4.839a.968.968,0,0,0-.948-1.158H25.72L23.1,27.619a.968.968,0,0,0-.829-.469H16.091l-1.663-3.336a.968.968,0,0,0-.711-.523.948.948,0,0,0-.839.271l-1.256,1.251V23.278a.968.968,0,0,0-.284-.684L9.686,20.942V19.278l5.945-.849a.972.972,0,0,0,.361-.129l4.839-2.9a.967.967,0,0,0,.331-.331l2.72-4.532,2.564-.856a.958.958,0,0,0,.612-.612l.968-2.9A.968.968,0,0,0,27.266,4.9l-5.6-.934-.984-.656a27.025,27.025,0,0,1,18.614.692l-1.768.883H33.882a.968.968,0,0,0-.871.535L31.076,9.3a.968.968,0,0,0,.56,1.35l2.9.968a.95.95,0,0,0,.54.021l3.6-.9,2.636.878a.712.712,0,0,0,.116.031l4.839.968A.961.961,0,0,0,47,12.469L49.2,11a27.3,27.3,0,0,1,2.911,3.89l-4.762,1.587-5.156-.859-1.7-2.555a.968.968,0,0,0-.8-.431H33.882a.968.968,0,0,0-.684.284l-2.9,2.9a.968.968,0,0,0-.274.822l.968,6.775a.968.968,0,0,0,.581.752l6.775,2.9a.957.957,0,0,0,.616.049l3.456-.864,2.113,1.411v3.354a.967.967,0,0,0,.1.433L48.4,38.992v3.643a.968.968,0,0,0,.284.684l2.025,2.026A27.093,27.093,0,0,1,12.778,50.758Z" transform="translate(0 -0.05)" fill="#288ee7"/>
  </g>
</svg>
